<svg xmlns="http://www.w3.org/2000/svg" xmlns:xlink="http://www.w3.org/1999/xlink" preserveAspectRatio="xMidYMid" width="15.969" height="15.16" viewBox="0 0 15.969 15.16">
  <defs>
    <style>
      .cls-1 {
        fill: #fff;
        fill-rule: evenodd;
      }
    </style>
  </defs>
  <path d="M0.835,3.779 C0.835,5.066 1.280,5.994 2.157,6.539 C2.875,6.987 3.710,7.053 4.143,7.053 C4.248,7.053 4.332,7.050 4.391,7.046 C4.391,7.046 4.254,7.910 4.917,8.765 L4.887,8.765 C3.737,8.765 -0.013,8.997 -0.013,11.974 C-0.013,15.002 3.432,15.156 4.123,15.156 C4.177,15.156 4.208,15.156 4.208,15.156 C4.216,15.156 4.265,15.158 4.349,15.158 C4.793,15.158 5.939,15.104 7.004,14.604 C8.385,13.957 9.085,12.831 9.085,11.258 C9.085,9.738 8.018,8.834 7.239,8.172 C6.763,7.769 6.352,7.421 6.352,7.083 C6.352,6.738 6.652,6.479 7.032,6.151 C7.647,5.620 8.226,4.865 8.226,3.437 C8.226,2.182 8.057,1.340 7.019,0.805 C7.127,0.752 7.510,0.712 7.699,0.687 C8.262,0.613 9.085,0.529 9.085,0.085 L9.085,-0.001 L4.983,-0.001 C4.942,0.000 0.835,0.147 0.835,3.779 ZM7.457,11.541 C7.535,12.753 6.462,13.647 4.851,13.760 C3.214,13.875 1.867,13.164 1.788,11.954 C1.750,11.373 2.015,10.802 2.533,10.349 C3.059,9.890 3.781,9.606 4.566,9.550 C4.659,9.545 4.750,9.541 4.842,9.541 C6.357,9.541 7.382,10.400 7.457,11.541 ZM6.386,2.950 C6.788,4.317 6.180,5.746 5.212,6.009 C5.101,6.039 4.985,6.055 4.869,6.055 C3.982,6.055 3.103,5.188 2.777,3.995 C2.595,3.324 2.610,2.738 2.819,2.175 C3.024,1.620 3.392,1.245 3.856,1.119 C3.967,1.089 4.083,1.074 4.199,1.074 C5.270,1.074 5.959,1.502 6.386,2.950 ZM13.297,5.927 L13.297,3.343 L11.602,3.343 L11.602,5.927 L8.926,5.927 L8.926,7.563 L11.602,7.563 L11.602,10.147 L13.297,10.147 L13.297,7.563 L15.974,7.563 L15.974,5.927 L13.297,5.927 Z" class="cls-1"/>
</svg>
