<svg xmlns="http://www.w3.org/2000/svg" xmlns:xlink="http://www.w3.org/1999/xlink" preserveAspectRatio="xMidYMid" width="15.968" height="12.63" viewBox="0 0 15.968 12.63">
  <defs>
    <style>
      .cls-1 {
        fill: #fff;
        fill-rule: evenodd;
      }
    </style>
  </defs>
  <path d="M15.531,0.235 C14.897,0.600 14.195,0.866 13.447,1.009 C12.849,0.388 11.997,0.001 11.054,0.001 C9.242,0.001 7.774,1.430 7.774,3.191 C7.774,3.441 7.803,3.684 7.859,3.917 C5.133,3.784 2.717,2.514 1.099,0.585 C0.817,1.055 0.655,1.603 0.655,2.188 C0.655,3.295 1.235,4.271 2.114,4.842 C1.577,4.825 1.071,4.681 0.629,4.442 L0.629,4.482 C0.629,6.027 1.760,7.315 3.259,7.610 C2.984,7.682 2.695,7.722 2.395,7.722 C2.183,7.722 1.979,7.701 1.777,7.664 C2.195,8.931 3.406,9.853 4.840,9.880 C3.719,10.735 2.304,11.244 0.768,11.244 C0.503,11.244 0.242,11.229 -0.015,11.200 C1.437,12.105 3.160,12.633 5.013,12.633 C11.045,12.633 14.344,7.773 14.344,3.558 L14.333,3.145 C14.976,2.697 15.533,2.135 15.972,1.496 C15.384,1.750 14.753,1.922 14.089,1.998 C14.766,1.603 15.285,0.978 15.531,0.235 Z" class="cls-1"/>
</svg>
